<?xml version="1.0" encoding="iso-8859-1"?>
<!-- Generator: Adobe Illustrator 19.0.0, SVG Export Plug-In . SVG Version: 6.00 Build 0)  -->
<svg version="1.1" id="Layer_1" xmlns="http://www.w3.org/2000/svg" xmlns:xlink="http://www.w3.org/1999/xlink" x="0px" y="0px"
	 viewBox="0 0 258.674 258.674" style="enable-background:new 0 0 258.674 258.674;" xml:space="preserve">
<g>
	<g>
		<g>
			<path d="M82.678,105.457h-4.616V82.873l-0.244-0.244c-0.028,0.072-0.088,0.12-0.124,0.188c-0.744-1.38-2.628-2.476-5.192-3.3
				V62.885l-0.352-0.352c-1.844-2.524-10.884-2.744-13.876-2.744s-12.032,0.224-13.876,2.744l-0.352,0.356v2.044h-9.568
				l-1.132,1.136v7.88l1.132,1.136h9.568v4.428c-1.864,0.596-3.36,1.34-4.332,2.232h-0.096l-1.132,1.136v22.584h-3.584
				c-6.736,0-12.216,5.48-12.216,12.216v14.492c-8.044,3.356-15.612,11.416-19.724,22.164c-3.82,9.992-3.952,20.596-0.356,28.372
				c2.276,4.928,5.872,8.38,10.384,9.972c1.816,0.644,3.704,0.948,5.616,0.948c1.348,0,2.712-0.156,4.08-0.452v19.908
				c0,12.268,11.16,22.248,24.88,22.248h22.448c13.72,0,24.88-9.984,24.88-22.248v-79.44v-2.176v-13.8
				C94.894,110.937,89.414,105.457,82.678,105.457z M44.042,72.813H35.61v-5.612h8.432V72.813z M58.274,62.057
				c6.208,0,10.164,0.828,11.552,1.436c-1.388,0.612-5.344,1.436-11.552,1.436s-10.164-0.828-11.552-1.436
				C48.11,62.881,52.066,62.057,58.274,62.057z M46.306,73.949v-7.88v-0.336c3.372,1.328,9.584,1.468,11.964,1.468
				s8.592-0.144,11.964-1.468v14.656c-0.984,0.524-5.06,1.352-11.964,1.352s-10.976-0.828-11.964-1.352V73.949z M44.518,81.753
				c1.88,1.932,9.152,2.256,13.756,2.256c4.608,0,11.904-0.328,13.768-2.268c2.416,0.832,3.756,1.76,3.756,2.416
				c0,1.464-6.188,4.308-17.524,4.308S40.75,85.621,40.75,84.157C40.75,83.505,42.094,82.581,44.518,81.753z M40.75,87.373
				c3.492,2.212,10.528,3.364,17.524,3.364c6.996,0,14.032-1.148,17.524-3.364v15.092h0c-1.532,0.76-6.992,1.656-15.084,1.796
				c-0.004-0.032,0.02-0.064,0.012-0.096c0.72-0.836,1.368-2.492,1.9-3.836c0.18-0.456,0.34-0.868,0.472-1.168
				c0.892-1.988,0.868-3.892-0.06-5.228c-0.572-0.824-1.436-1.256-2.248-1.084c-0.468,0.1-0.812,0.392-1.028,0.596
				c-0.948,0.892-1.288,3-1.368,5.052c-0.892-2.344-1.848-4.276-3.408-4.068c-1.572,0.248-2.22,1.068-2.488,1.708
				c-0.64,1.548,0.308,3.396,0.58,3.772c0.968,1.336,3.56,3.24,5.4,4.38c-10.296-0.012-16.88-1.252-17.464-1.968
				c0-0.224-0.108-0.404-0.264-0.54V87.373z M60.222,105.809c0.028-0.012,0.032-0.04,0.056-0.056
				c3.904-0.056,11.896-0.352,15.516-1.752v16.632c-0.108,0.932-5.664,3.388-17.524,3.388c-1.952,0-3.672-0.084-5.288-0.2
				C51.77,116.757,49.382,110.149,60.222,105.809z M59.41,103.141l0.336-0.112c-0.06,0.084-0.112,0.156-0.172,0.212
				C59.518,103.209,59.466,103.177,59.41,103.141z M60.778,94.517c0.14-0.136,0.252-0.212,0.332-0.228
				c0.012-0.004,0.028-0.004,0.044-0.004c0.168,0,0.456,0.172,0.676,0.488c0.888,1.28,0.244,3.076-0.076,3.784
				c-0.14,0.316-0.312,0.752-0.504,1.236c-0.332,0.848-0.788,2.016-1.232,2.8C59.67,99.821,59.822,95.413,60.778,94.517z
				 M58.246,102.389c-1.588-1.08-3.324-2.46-3.968-3.344c-0.18-0.248-0.756-1.512-0.412-2.34c0.068-0.16,0.268-0.648,1.36-0.82
				c0.008,0,0.016,0,0.028,0c0.448,0,1.26,1.656,2.416,4.92C57.874,101.389,58.066,101.929,58.246,102.389z M40.75,103.701
				c3.164,1.64,11.832,1.984,16.052,2.048c-3.54,1.796-6.368,4.256-6.916,8.72c-0.376,3.08,0.608,6.032,1.208,9
				c0.012,0.064,0.024,0.128,0.036,0.196c-6.94-0.708-10.296-2.316-10.38-3.036V103.701z M34.902,108.857h3.584v11.772
				c0,3.224,6.728,4.732,13.052,5.328c0.584,3.808,0.48,7.464-2.632,10.628c-1.04,1.06-2.264,1.792-3.568,2.296
				c-2.248-3.588-5.276-6.196-8.972-7.5c-3.28-1.156-6.784-1.192-10.276-0.332v-13.376h-0.004
				C26.086,112.813,30.042,108.857,34.902,108.857z M13.75,190.537c-3.924-1.388-7.068-4.424-9.084-8.788
				c-3.344-7.232-3.192-17.18,0.416-26.612c5.132-13.42,15.844-22.448,25.592-22.448c1.684,0,3.34,0.268,4.928,0.832
				c3.016,1.064,5.556,3.124,7.492,5.992c-1.52,0.252-3.096,0.208-4.636-0.06c-0.012-0.412-0.1-0.82-0.288-1.208
				c-0.736-1.516-2.604-2.192-4.2-1.496c-0.78,0.344-1.372,0.968-1.66,1.752c-0.276,0.76-0.24,1.584,0.116,2.32
				c0.54,1.112,1.696,1.768,2.892,1.768c0.436,0,0.884-0.088,1.304-0.272c0.656-0.288,1.124-0.796,1.448-1.4
				c1.968,0.372,3.932,0.344,5.792-0.048c0.272,0.484,0.584,0.924,0.824,1.448c3.344,7.232,3.188,17.18-0.416,26.608
				C38.254,184.657,24.554,194.357,13.75,190.537z M35.846,140.333c0.364,0.12,0.732,0.188,1.1,0.284
				c-0.2,0.272-0.444,0.512-0.772,0.656c-1.036,0.452-2.248,0.028-2.72-0.952c-0.224-0.452-0.248-0.96-0.076-1.432
				c0.18-0.492,0.556-0.884,1.052-1.104c0.28-0.124,0.572-0.18,0.86-0.18c0.772,0,1.516,0.42,1.86,1.132
				c0.072,0.144,0.088,0.3,0.12,0.456c-0.344-0.088-0.692-0.168-1.032-0.28C35.334,138.613,34.946,140.037,35.846,140.333z
				 M33.346,187.981v39.112c-4.42-3.456-7.26-8.428-7.26-14.016v-20.984c2.836-1.1,5.62-2.752,8.224-4.94
				C33.982,187.421,33.69,187.733,33.346,187.981z M82.498,228.353c-3.528,2.228-7.82,3.572-12.484,3.572H47.566
				c-4.424,0-8.536-1.184-11.956-3.204v-42.68c-0.3,0.328-0.664,0.568-0.996,0.852c4.856-4.176,9.068-10.084,11.776-17.164
				c3.128-8.18,3.74-16.752,1.9-23.864h34.208V228.353z M91.494,213.077c0,5.372-2.608,10.196-6.732,13.632v-81.056
				c2.628-0.456,4.964-1.74,6.732-3.592V213.077z M91.494,131.653v1.992c0,4.86-3.956,8.816-8.816,8.816H47.174
				c-0.148-0.364-0.264-0.748-0.424-1.1c-0.196-0.424-0.456-0.776-0.672-1.176c2.212-0.92,4.168-2.476,5.588-4.816
				c1.84-3.04,1.988-6.172,1.644-9.26c1.804,0.124,3.52,0.18,4.964,0.18c6.844,0,19.788-1.18,19.788-5.656v-11.772h4.616
				c4.86,0,8.816,3.952,8.816,8.816V131.653z"/>
			<path d="M113.234,151.645c0.008,0.16,0.868,14.844,18.468,18.148c-3.124,1.784-5.224,4.012-6.216,6.672
				c-1.64,4.408,0.364,8.268,0.448,8.432c0.192,0.364,0.568,0.592,0.976,0.6c0.136,0.004,0.264,0.004,0.4,0.004
				c4.112,0,7.184-1.256,9.132-3.744c1.788-2.28,2.272-5.156,2.288-7.576c3.892,4.496,9.624,5.66,14.252,5.66
				c4.148,0,7.364-0.856,7.436-0.876c0.312-0.088,0.576-0.304,0.72-0.592c0.14-0.292,0.152-0.632,0.028-0.932
				c-1.952-4.752-5.612-7.372-9.428-8.808c6.628-1.408,13.572-4.856,15.064-13.136c0.084-0.456-0.12-0.912-0.512-1.16
				c-0.46-0.284-10.444-6.2-24.444,6.952c3.5-8.28,4.312-14.752,2.284-19.216c-1.804-3.968-5.168-4.776-5.308-4.812
				c-0.332-0.08-0.66,0-0.928,0.192c-7.228,5.348-6.708,15.796-5.208,23.14c-3.916-5.2-10.372-11.344-18.492-10.116
				C113.618,150.565,113.21,151.069,113.234,151.645z M134.65,180.373c-1.44,1.832-3.784,2.796-6.976,2.864
				c-0.396-1.068-1.02-3.416-0.068-5.976c1.012-2.716,3.564-4.932,7.496-6.624c0.332,0.384,0.724,0.68,1.176,0.896
				C136.59,173.741,136.758,177.697,134.65,180.373z M139.206,168.525c-0.06,0.368-0.26,0.688-0.568,0.904
				c-0.304,0.212-0.672,0.288-1.036,0.232c-0.364-0.064-0.684-0.264-0.896-0.568c-0.216-0.304-0.296-0.672-0.236-1.04
				c0.064-0.364,0.26-0.68,0.568-0.896c0.24-0.168,0.516-0.256,0.8-0.256c0.08,0,0.156,0.004,0.236,0.02
				C138.83,167.053,139.334,167.773,139.206,168.525z M158.482,177.077c-3.68,0.696-13.952,1.76-18.96-5.584
				c0.14-0.072,0.292-0.12,0.424-0.212c0.688-0.488,1.128-1.204,1.356-2.004C145.614,169.221,154.662,169.989,158.482,177.077z
				 M164.394,155.909c-2.12,8.66-12.076,10.82-18.904,11.264c0.016,0.004,0.028,0.012,0.044,0.012
				c-1.66-0.188-3.168-0.228-4.348-0.204c-0.164-0.416-0.392-0.788-0.692-1.12C152.782,152.337,161.894,154.801,164.394,155.909z
				 M138.782,139.645c0.768,0.332,2.316,1.24,3.284,3.372c1.456,3.204,1.712,9.608-4.292,21.692
				c-0.556,0.012-1.092,0.14-1.592,0.404C134.418,159.257,131.406,145.725,138.782,139.645z M134.358,167.369
				c-0.028,0.104-0.096,0.192-0.112,0.296c-0.012,0.072,0.012,0.144,0.004,0.216c-15.164-1.836-18.08-11.924-18.624-15.272
				C125.242,152.065,132.49,163.977,134.358,167.369z"/>
			<path d="M37.942,173.173c0.136-0.276,0.156-0.596,0.052-0.888c-1.08-2.992-3.152-4.804-5.468-5.912
				c4.336-1.28,8.36-4.016,9.32-9.376c0.08-0.436-0.108-0.884-0.476-1.136c-0.284-0.196-6.256-4.06-14.852,3.808
				c1.892-5.336,2.184-9.488,0.836-12.364c-0.976-2.084-2.636-2.968-3.464-3.164c-0.348-0.088-0.708,0.004-0.976,0.228
				c-4.324,3.544-4.556,9.992-3.908,15.044c-2.572-3.328-6.412-6.632-11.16-5.744c-0.548,0.1-0.94,0.584-0.924,1.144
				c0.004,0.112,0.412,10.172,11.16,12.664c-1.708,1.216-2.928,2.656-3.56,4.344c-1.224,3.264,0.096,6.132,0.152,6.252
				c0.196,0.412,0.752,0.64,1.068,0.652c2.732,0,4.816-0.88,6.204-2.608c1.144-1.428,1.576-3.188,1.724-4.808
				c2.34,2.408,5.548,3.216,8.488,3.216c1.936-0.004,3.756-0.34,5.112-0.772C37.562,173.661,37.81,173.449,37.942,173.173z
				 M39.43,157.413c-1.54,5.748-7.688,7.232-11.88,7.58c-0.812-0.084-1.576-0.092-2.3-0.068c-0.068-0.148-0.104-0.312-0.196-0.448
				C32.342,155.809,37.63,156.717,39.43,157.413z M23.846,146.577c0.424,0.256,1.044,0.776,1.488,1.776
				c0.956,2.14,1.152,6.488-2.788,15.016c-0.16,0.02-0.304,0.052-0.46,0.1C21.058,159.301,19.614,150.745,23.846,146.577z
				 M9.302,155.793H9.39c5.504,0,9.616,7.416,10.792,9.792C11.598,164.413,9.71,158.285,9.302,155.793z M20.166,174.697
				c-0.824,1.032-2.032,1.6-3.676,1.732c-0.216-0.816-0.428-2.268,0.148-3.812c0.644-1.712,2.12-3.148,4.348-4.288
				c0.136,0.132,0.256,0.284,0.416,0.384C21.566,170.441,21.498,173.037,20.166,174.697z M23.842,166.493v0.004
				c-0.08,0.36-0.316,0.668-0.64,0.856c-0.152,0.084-0.388,0.18-0.676,0.14c-0.28-0.04-0.46-0.188-0.568-0.308
				c-0.232-0.26-0.324-0.616-0.244-0.988c0.08-0.356,0.316-0.668,0.64-0.852c0.124-0.072,0.324-0.148,0.54-0.148
				c0.044,0,0.088,0,0.136,0.008c0.28,0.04,0.46,0.188,0.568,0.308C23.83,165.773,23.922,166.133,23.842,166.493z M24.398,168.529
				c0.44-0.336,0.74-0.812,0.932-1.34c2.652-0.052,7.72,0.436,10.016,4.716C32.838,172.413,27.274,172.893,24.398,168.529z"/>
			<path d="M257.034,204.077c-0.98-0.408-24.164-9.808-47.936-2.588c-2.904,0.88-5.668,1.972-8.292,3.2
				c0.712-0.956,1.404-1.94,2.028-2.988c8.424-14.156,4.564-30.78,4.396-31.48l-0.38-1.58l-1.52,0.512
				c-0.708,0.24-17.06,5.872-25.652,19.248c-0.592-1.524-1.248-2.956-1.932-4.276v-71.4c0-10.504-7.52-19.048-16.756-19.048h-0.916
				V65.689l-1.132-1.136h-0.144c-1.824-1.616-5.468-2.724-9.804-3.356l0.468-31.896c0-4.7-4.496-8.52-10.024-8.52
				c-5.532,0-10.028,3.824-10.028,8.52l0.448,31.9c-4.324,0.632-7.96,1.74-9.784,3.348h-0.144l-1.132,1.136v27.988h-0.916
				c-9.24,0-16.752,8.248-16.752,18.384v113.708c0,0.04,0.004,0.076,0.004,0.112c0.02-0.032,0.048-0.056,0.068-0.088
				c0.792,6.772,22.944,9.252,37.956,9.252c9.428,0,21.616-1,29.628-3.404l0.232,0.236l-0.032,0.044l0.128,0.052l0.168,0.172
				l0.064-0.076l1.264,0.52c0.708,0.292,13.064,5.308,28.86,5.308c6.012,0,12.524-0.728,19.08-2.716
				c23.768-7.212,38.504-28.1,39.12-28.988l1.004-1.444L257.034,204.077z M209.918,204.197c17.764-5.392,35.652-0.92,42.788,1.36
				l-27.176,8.084c-0.004,0-0.008,0.004-0.016,0.004l-50.524,15.028C180.198,222.453,192.722,209.417,209.918,204.197z
				 M180.918,192.213c0.22-0.424,0.396-0.856,0.644-1.276c6.388-10.74,18.724-16.536,23.104-18.324
				c0.716,4.456,1.936,16.948-4.368,27.536c-2.248,3.776-5.24,6.916-8.356,9.508c0.008,0,0.012,0.004,0.016,0.004
				c-7.38,4.836-13.104,10.368-16.86,14.532c3.284-5.416,7.044-13.536,7.124-22.456C182.254,198.345,181.73,195.157,180.918,192.213
				z M140.078,126.553c14.904,0,27.74,8.908,33.696,21.712v29.476c-1.636-2.228-2.9-3.548-3.052-3.704l-1.076-1.096l-1.008,1.156
				c-0.42,0.48-9.06,10.524-11.376,23.376c-5.152,2.748-10.96,4.392-17.184,4.392c-16.084,0-29.78-10.368-34.992-24.82v-25.672
				C110.298,136.921,123.994,126.553,140.078,126.553z M135.222,124.617v-17.052c1.492,0.072,2.928,0.108,4.208,0.108
				c1.748,0,3.776-0.064,5.86-0.208v17.196c-1.708-0.228-3.44-0.376-5.212-0.376C138.43,124.285,136.818,124.421,135.222,124.617z
				 M160.062,102.169v-4.388h0.92c7.052,0,12.788,6.7,12.788,14.936v30.864c-5.692-9.456-15.104-16.324-26.22-18.496v-17.812
				C153.894,106.641,160.062,105.161,160.062,102.169z M157.806,102.137c-0.368,1.14-7,3.26-18.376,3.26
				c-11.376,0-18.012-2.124-18.376-3.232V70.037c3.66,2.228,11.204,3.276,18.376,3.276s14.712-1.048,18.372-3.276L157.806,102.137z
				 M131.662,29.297h0.004c0-3.448,3.484-6.252,7.76-6.252s7.756,2.804,7.756,6.252v35.468c-5.22,1.364-10.292,1.364-15.52,0V29.297
				z M129.882,63.513l0.044,3.188c3.084,0.888,6.48,1.36,9.5,1.36c3.02,0,6.396-0.564,9.48-1.452l0.044-3.096
				c5.732,0.9,8.848,2.456,8.848,3.416c0,1.4-6.484,4.12-18.372,4.12s-18.376-2.724-18.376-4.12
				C121.054,65.965,124.166,64.413,129.882,63.513z M105.082,112.053c0.004-7.948,5.736-14.416,12.788-14.416h0.916v4.532
				c0,3.256,7.288,4.72,14.168,5.252v17.532c-12.12,2.24-22.312,10.068-27.872,20.744V112.053z M139.146,232.217
				c-23.092-0.008-35.172-4.424-35.172-6.792c0-2.368,12.08-6.78,35.172-6.78c0.788,0,1.428-0.636,1.428-1.416
				c0-0.78-0.64-1.416-1.428-1.416c-11.376,0-26.876,1.424-34.06,5.06v-38.188c6.612,12.728,19.796,21.448,34.992,21.448
				c6.044,0,11.7-1.496,16.808-3.98c-0.112,1.052-0.184,2.12-0.196,3.2c-0.112,12.364,6.868,22.2,10.008,26.004
				C160.842,230.921,151.646,232.217,139.146,232.217z M169.154,227.861c-2.728-3.26-9.736-12.792-9.628-24.488
				c0.108-11.836,7.484-22.564,10.236-26.148c2.728,3.26,9.736,12.792,9.628,24.488
				C179.286,213.549,171.906,224.277,169.154,227.861z M174.094,230.837l16.772-4.988c0.076,0.104,0.116,0.232,0.236,0.3
				l15.24,8.536C192.01,236.093,179.226,232.549,174.094,230.837z M217.714,232.473c-2.784,0.844-5.568,1.424-8.316,1.828
				l-16.284-9.12l15.528-4.62c0.036,0.028,0.04,0.076,0.076,0.1l16.196,9.072C222.618,230.781,220.218,231.713,217.714,232.473z
				 M226.918,228.761l-15.896-8.908l14.632-4.352l11.928,6.68C234.39,224.545,230.822,226.813,226.918,228.761z M239.178,220.985
				l-11.084-6.208l25.116-7.472C250.646,210.437,245.822,215.809,239.178,220.985z"/>
		</g>
	</g>
</g>
<g>
</g>
<g>
</g>
<g>
</g>
<g>
</g>
<g>
</g>
<g>
</g>
<g>
</g>
<g>
</g>
<g>
</g>
<g>
</g>
<g>
</g>
<g>
</g>
<g>
</g>
<g>
</g>
<g>
</g>
</svg>
